<svg width="332" height="138" viewBox="0 0 332 138" fill="none" xmlns="http://www.w3.org/2000/svg">
<path d="M71.46 138C63.4893 138 55.9107 135.779 48.724 131.336C41.668 126.893 35.2 121.013 29.32 113.696C23.44 106.248 18.344 98.016 14.032 89C9.85067 79.984 6.584 70.8373 4.232 61.56C2.01067 52.2827 0.9 43.5933 0.9 35.492C0.9 29.0893 1.81467 23.34 3.644 18.244C5.604 13.0173 8.544 8.836 12.464 5.7C16.384 2.56399 21.3493 0.995988 27.36 0.995988C33.5013 0.995988 38.5973 2.95599 42.648 6.87599C46.8293 10.6653 50.292 15.7613 53.036 22.164C55.78 28.436 58.132 35.4267 60.092 43.136C62.052 50.7147 63.8813 58.3587 65.58 66.068C67.4093 73.6467 69.3693 80.6373 71.46 87.04C74.0733 80.6373 76.2947 73.6467 78.124 66.068C80.084 58.3587 82.044 50.7147 84.004 43.136C85.964 35.4267 88.2507 28.436 90.864 22.164C93.4773 15.7613 96.6787 10.6653 100.468 6.87599C104.388 2.95599 109.223 0.995988 114.972 0.995988C124.119 0.995988 130.783 4.26266 134.964 10.796C139.276 17.3293 141.432 25.5613 141.432 35.492C141.432 43.5933 140.256 52.2827 137.904 61.56C135.683 70.8373 132.481 79.984 128.3 89C124.119 98.016 119.088 106.248 113.208 113.696C107.459 121.013 101.056 126.893 94 131.336C86.944 135.779 79.4307 138 71.46 138Z" fill="#00D1FF"/>
<path d="M164.43 75.92C160.249 75.92 156.707 74.4267 153.806 71.44C150.905 68.368 149.454 64.656 149.454 60.304C149.454 57.4027 150.094 54.8 151.374 52.496C152.739 50.192 154.531 48.3573 156.75 46.992C159.054 45.5413 161.614 44.816 164.43 44.816C167.161 44.816 169.635 45.5413 171.854 46.992C174.158 48.3573 175.993 50.192 177.358 52.496C178.723 54.8 179.406 57.4027 179.406 60.304C179.406 63.2053 178.723 65.8507 177.358 68.24C175.993 70.544 174.158 72.4213 171.854 73.872C169.635 75.2373 167.161 75.92 164.43 75.92ZM164.43 138C161.017 138 158.457 137.019 156.75 135.056C155.129 133.093 154.019 130.107 153.422 126.096C152.91 122 152.611 116.752 152.526 110.352C152.526 103.952 152.782 98.704 153.294 94.608C153.891 90.512 155.043 87.5253 156.75 85.648C158.457 83.6853 161.017 82.704 164.43 82.704C167.843 82.704 170.361 83.6853 171.982 85.648C173.689 87.5253 174.841 90.512 175.438 94.608C176.035 98.704 176.334 103.952 176.334 110.352C176.419 116.752 176.163 122 175.566 126.096C174.969 130.107 173.817 133.093 172.11 135.056C170.403 137.019 167.843 138 164.43 138ZM219.493 138C212.666 138 206.693 136.123 201.573 132.368C196.538 128.613 192.656 123.323 189.925 116.496C187.194 109.584 185.829 101.392 185.829 91.92C185.829 88.08 186.298 83.8987 187.237 79.376C188.261 74.768 189.754 70.416 191.717 66.32C193.68 62.1387 196.069 58.7253 198.885 56.08C201.701 53.4347 204.944 52.112 208.613 52.112C212.453 52.112 215.568 53.4773 217.957 56.208C220.432 58.9387 221.669 62.3093 221.669 66.32C221.669 68.368 221.114 71.0133 220.005 74.256C218.896 77.4133 217.786 80.8267 216.677 84.496C215.568 88.08 215.013 91.5787 215.013 94.992C215.013 99.0027 215.61 101.819 216.805 103.44C218 104.976 219.322 105.744 220.773 105.744C222.906 105.744 224.4 104.677 225.253 102.544C226.192 100.411 226.661 96.3573 226.661 90.384C226.661 87.2267 226.618 83.856 226.533 80.272C226.533 76.688 226.832 73.3173 227.429 70.16C228.112 66.9173 229.392 64.272 231.269 62.224C233.232 60.176 236.133 59.152 239.973 59.152C243.813 59.152 246.714 60.1333 248.677 62.096C250.725 64.0587 252.09 66.6187 252.773 69.776C253.456 72.848 253.797 76.1333 253.797 79.632C253.882 83.1307 253.925 86.4587 253.925 89.616C253.925 96.016 254.48 100.496 255.589 103.056C256.698 105.531 258.405 106.768 260.709 106.768C262.416 106.768 263.738 105.829 264.677 103.952C265.616 101.989 266 99.0027 265.829 94.992C265.658 91.5787 265.018 88.208 263.909 84.88C262.8 81.4667 261.69 78.1813 260.581 75.024C259.557 71.8667 259.045 68.9653 259.045 66.32C259.045 62.1387 260.368 58.768 263.013 56.208C265.658 53.648 268.688 52.368 272.101 52.368C276.112 52.368 279.568 53.6907 282.469 56.336C285.37 58.9813 287.76 62.352 289.637 66.448C291.514 70.544 292.88 74.8533 293.733 79.376C294.672 83.8987 295.141 88.08 295.141 91.92C295.141 101.392 293.776 109.584 291.045 116.496C288.314 123.323 284.432 128.613 279.397 132.368C274.362 136.037 268.389 137.872 261.477 137.872C257.808 137.872 254.181 137.061 250.597 135.44C247.013 133.733 243.642 131.131 240.485 127.632C237.328 131.131 233.914 133.733 230.245 135.44C226.661 137.147 223.077 138 219.493 138ZM316.555 75.92C312.374 75.92 308.832 74.4267 305.931 71.44C303.03 68.368 301.579 64.656 301.579 60.304C301.579 57.4027 302.219 54.8 303.499 52.496C304.864 50.192 306.656 48.3573 308.875 46.992C311.179 45.5413 313.739 44.816 316.555 44.816C319.286 44.816 321.76 45.5413 323.979 46.992C326.283 48.3573 328.118 50.192 329.483 52.496C330.848 54.8 331.531 57.4027 331.531 60.304C331.531 63.2053 330.848 65.8507 329.483 68.24C328.118 70.544 326.283 72.4213 323.979 73.872C321.76 75.2373 319.286 75.92 316.555 75.92ZM316.555 138C313.142 138 310.582 137.019 308.875 135.056C307.254 133.093 306.144 130.107 305.547 126.096C305.035 122 304.736 116.752 304.651 110.352C304.651 103.952 304.907 98.704 305.419 94.608C306.016 90.512 307.168 87.5253 308.875 85.648C310.582 83.6853 313.142 82.704 316.555 82.704C319.968 82.704 322.486 83.6853 324.107 85.648C325.814 87.5253 326.966 90.512 327.563 94.608C328.16 98.704 328.459 103.952 328.459 110.352C328.544 116.752 328.288 122 327.691 126.096C327.094 130.107 325.942 133.093 324.235 135.056C322.528 137.019 319.968 138 316.555 138Z" fill="black"/>
</svg>
